HIERARCHY
ROOT Hips
{
 OFFSET 0.000000 0.000000 0.000000
 CHANNELS 6 Xposition Yposition Zposition Yrotation Xrotation Zrotation
 JOINT Chest
 {
  OFFSET 0.000000 9.588913 -0.003946
  CHANNELS 3 Yrotation Xrotation Zrotation
  JOINT Chest2
  {
   OFFSET 0.000000 9.541882 0.008053
   CHANNELS 3 Yrotation Xrotation Zrotation
   JOINT Chest3
   {
    OFFSET 0.000000 9.501360 0.000000
    CHANNELS 3 Yrotation Xrotation Zrotation
    JOINT Chest4
    {
     OFFSET 0.000000 9.491660 0.000000
     CHANNELS 3 Yrotation Xrotation Zrotation
     JOINT Neck
     {
      OFFSET 0.000000 14.331917 0.000000
      CHANNELS 3 Yrotation Xrotation Zrotation
      JOINT Head
      {
       OFFSET 0.000000 8.884799 0.017034
       CHANNELS 3 Yrotation Xrotation Zrotation
       End Site
       {
        OFFSET 0.000000 16.896195 0.008993
       }
      }
     }
     JOINT RightCollar
     {
      OFFSET -2.923010 9.499495 0.000000
      CHANNELS 3 Yrotation Xrotation Zrotation
      JOINT RightShoulder
      {
       OFFSET -13.795216 0.000000 0.000000
       CHANNELS 3 Yrotation Xrotation Zrotation
       JOINT RightElbow
       {
        OFFSET -30.272209 0.000000 0.000000
        CHANNELS 3 Yrotation Xrotation Zrotation
        JOINT RightWrist
        {
         OFFSET -24.478199 0.000000 0.000000
         CHANNELS 3 Yrotation Xrotation Zrotation
         End Site
         {
          OFFSET -18.090752 0.000000 0.000000
         }
        }
       }
      }
     }
     JOINT LeftCollar
     {
      OFFSET 2.923010 9.499495 0.000000
      CHANNELS 3 Yrotation Xrotation Zrotation
      JOINT LeftShoulder
      {
       OFFSET 13.795216 0.000000 0.000000
       CHANNELS 3 Yrotation Xrotation Zrotation
       JOINT LeftElbow
       {
        OFFSET 30.272209 0.000000 0.000000
        CHANNELS 3 Yrotation Xrotation Zrotation
        JOINT LeftWrist
        {
         OFFSET 24.478199 0.000000 0.000000
         CHANNELS 3 Yrotation Xrotation Zrotation
         End Site
         {
          OFFSET 18.090752 0.000000 0.000000
         }
        }
       }
      }
     }
    }
   }
  }
 }
 JOINT RightHip
 {
  OFFSET -7.826875 0.019532 0.001973
  CHANNELS 3 Yrotation Xrotation Zrotation
  JOINT RightKnee
  {
   OFFSET 0.000000 -40.546152 -0.001885
   CHANNELS 3 Yrotation Xrotation Zrotation
   JOINT RightAnkle
   {
    OFFSET 0.000000 -39.417092 -0.003189
    CHANNELS 3 Yrotation Xrotation Zrotation
    JOINT RightToe
    {
     OFFSET 0.000000 -7.579396 17.243563
     CHANNELS 3 Yrotation Xrotation Zrotation
     End Site
     {
      OFFSET 0.000000 -1.500329 6.694466
     }
    }
   }
  }
 }
 JOINT LeftHip
 {
  OFFSET 7.826875 0.019532 0.001973
  CHANNELS 3 Yrotation Xrotation Zrotation
  JOINT LeftKnee
  {
   OFFSET 0.000000 -40.546152 -0.001885
   CHANNELS 3 Yrotation Xrotation Zrotation
   JOINT LeftAnkle
   {
    OFFSET 0.000000 -39.417092 -0.003189
    CHANNELS 3 Yrotation Xrotation Zrotation
    JOINT LeftToe
    {
     OFFSET 0.000000 -7.579396 17.243563
     CHANNELS 3 Yrotation Xrotation Zrotation
     End Site
     {
      OFFSET 0.000000 -1.500329 6.694466
     }
    }
   }
  }
 }
}
MOTION
Frames: 7
Frame Time: 0.008333
13.081285 89.411645 -4.160069 52.066846 -6.550995 -4.828731 -1.023598 3.786482 1.536611 -0.603759 2.138952 1.166132 -0.748011 2.675566 1.454390 -0.603759 2.138952 1.166133 -1.115774 30.291689 0.021800 -1.244304 8.189041 0.275856 -1.289694 0.807556 -0.978719 -0.990542 -3.897555 86.597807 8.684205 8.959728 3.779139 0.601787 -2.957177 -0.570455 -5.134268 1.015683 0.221574 5.145267 -3.811070 -87.692152 1.313480 2.118866 0.758405 -0.229532 0.524070 2.079994 0.337211 -2.830671 4.314847 4.817652 17.734672 0.191014 2.007923 -9.276432 -5.303653 0.047861 -0.142631 0.585584 6.036800 8.245485 6.372820 -6.361469 0.909873 -0.777785 -4.011140 -5.847882 -12.503682 0.173235 0.884366 -0.019248
13.084680 89.390815 -4.026731 52.110333 -6.554297 -4.791890 -1.025633 3.763628 1.535176 -0.602356 2.123079 1.161780 -0.746331 2.655715 1.448979 -0.602356 2.123079 1.161780 -1.135747 30.283886 0.029567 -1.268213 8.178961 0.288994 -1.307620 0.800370 -0.977503 -1.008156 -3.832248 86.617190 8.595009 8.965320 3.740712 0.595750 -2.946939 -0.567049 -5.129433 1.010924 0.219232 5.184223 -3.798417 -87.717920 1.362522 2.094444 0.782771 -0.241878 0.518762 2.089435 0.270188 -2.646491 4.367346 4.769299 17.538066 0.164529 2.064576 -9.298100 -5.597683 0.054958 -0.113892 0.626120 6.047163 8.286651 6.394565 -6.381651 0.940276 -0.746693 -4.023995 -5.935500 -12.546476 0.176233 0.907039 -0.025358
13.088097 89.375996 -3.891622 52.143492 -6.563972 -4.753705 -1.021617 3.742815 1.533167 -0.597389 2.108958 1.158065 -0.740186 2.638042 1.444383 -0.597389 2.108958 1.158065 -1.155271 30.273507 0.033378 -1.290714 8.165399 0.297639 -1.322774 0.790824 -0.974450 -1.021688 -3.767932 86.633858 8.495871 8.963975 3.697656 0.592366 -2.944468 -0.564963 -5.126207 1.006782 0.218753 5.224611 -3.790112 -87.748091 1.399405 2.071227 0.804116 -0.253965 0.512481 2.102405 0.213426 -2.458901 4.419940 4.716995 17.342942 0.135032 2.122669 -9.308264 -5.872896 0.059574 -0.095252 0.645708 6.065747 8.332697 6.417352 -6.407218 0.971405 -0.715397 -4.033813 -6.005380 -12.587617 0.175429 0.912810 -0.032348
13.091202 89.366413 -3.755444 52.166325 -6.582006 -4.714409 -1.012166 3.724536 1.530414 -0.589458 2.097238 1.155169 -0.730324 2.623363 1.440824 -0.589458 2.097238 1.155169 -1.172906 30.260722 0.033487 -1.310265 8.148560 0.301748 -1.333405 0.776986 -0.969505 -1.032275 -3.705161 86.648264 8.386668 8.958969 3.650857 0.589577 -2.945937 -0.565920 -5.120273 1.000446 0.218370 5.260275 -3.783765 -87.780785 1.425851 2.052570 0.824835 -0.267501 0.505639 2.117254 0.170755 -2.263825 4.472554 4.671028 17.143199 0.104232 2.172267 -9.304892 -6.123177 0.061715 -0.086455 0.645004 6.089414 8.390714 6.440351 -6.424899 0.993340 -0.682106 -4.047305 -6.054810 -12.630729 0.171692 0.904368 -0.038132
13.092818 89.361131 -3.619892 52.185591 -6.603144 -4.673473 -0.999751 3.706704 1.527288 -0.580461 2.087261 1.152526 -0.719121 2.610860 1.437586 -0.580461 2.087261 1.152527 -1.186736 30.245147 0.030902 -1.324960 8.127904 0.302009 -1.340812 0.759802 -0.961429 -1.033529 -3.647497 86.660444 8.266770 8.948126 3.599123 0.581876 -2.943229 -0.565287 -5.112040 0.990637 0.218423 5.284410 -3.779865 -87.811597 1.443223 2.034241 0.842058 -0.280414 0.502228 2.128344 0.137175 -2.065554 4.522020 4.641022 16.936205 0.077323 2.206450 -9.287656 -6.351266 0.062701 -0.086425 0.629624 6.110318 8.455475 6.460983 -6.426648 1.004280 -0.647438 -4.068470 -6.083778 -12.677292 0.165232 0.884995 -0.041340
13.091413 89.359199 -3.486690 52.204841 -6.621233 -4.630960 -0.985751 3.686455 1.524916 -0.571387 2.077831 1.150163 -0.707819 2.599040 1.434695 -0.571387 2.077831 1.150163 -1.197385 30.227392 0.025602 -1.335494 8.104257 0.298541 -1.347212 0.742022 -0.951304 -1.021207 -3.597491 86.667158 8.138671 8.932379 3.544302 0.568406 -2.936882 -0.557386 -5.103392 0.979661 0.219136 5.297438 -3.780994 -87.841029 1.450840 2.016224 0.851771 -0.287318 0.502393 2.135988 0.109700 -1.870787 4.565538 4.628396 16.721152 0.058785 2.224846 -9.256882 -6.557713 0.063713 -0.093548 0.601642 6.121284 8.518630 6.477518 -6.415796 1.006787 -0.612143 -4.091347 -6.095109 -12.726416 0.156759 0.857909 -0.042923
13.086002 89.359762 -3.356828 52.223865 -6.635263 -4.587530 -0.971610 3.663350 1.523479 -0.562492 2.068525 1.148827 -0.696734 2.587379 1.433088 -0.562492 2.068525 1.148827 -1.205872 30.208576 0.016862 -1.342840 8.079133 0.290767 -1.351187 0.724827 -0.941054 -1.001334 -3.556614 86.664999 8.004049 8.923184 3.488844 0.552954 -2.931343 -0.544200 -5.092667 0.968739 0.219421 5.309351 -3.783719 -87.871492 1.447084 2.008197 0.852657 -0.290198 0.500379 2.141368 0.090999 -1.684561 4.603588 4.623783 16.503996 0.045792 2.233624 -9.215022 -6.732838 0.064055 -0.107610 0.556753 6.118626 8.576624 6.489590 -6.400591 1.005380 -0.575386 -4.107475 -6.093609 -12.777066 0.147339 0.825480 -0.044641
